<?xml version="1.0" encoding="utf-8"?>
<!-- Generator: Adobe Illustrator 19.0.0, SVG Export Plug-In . SVG Version: 6.00 Build 0)  -->
<svg version="1.1" id="Layer_1" xmlns="http://www.w3.org/2000/svg" xmlns:xlink="http://www.w3.org/1999/xlink" x="0px" y="0px"
	 viewBox="0 0 91.9 118.9" style="enable-background:new 0 0 91.9 118.9;" xml:space="preserve">
<style type="text/css">
	.st0{fill:#1FFFD2;}
	.st1{fill:#5B61CF;}
</style>
<path id="XMLID_56_" class="st0" d="M54.3,21.6c-3.1-9.7-10.8-14.1-20.1-11.2c-8.3,2.6-12.8,12.4-9.7,21.4c1,3,2.7,5.8,4.5,8.4
	c11.2,15.6,22.6,31.1,33.9,46.6c0.4,0.5,0.8,1,1.5,1.8c4-6.7,7.1-13.5,8.7-20.9c0.6-2.8,0.8-5.6,1.6-8.3c0.3-1,1.6-2.2,2.6-2.3
	c4.1-0.2,8.1-0.1,12.5-0.1c0,2.2,0,4.2,0,6.5c-2.8,0-5.7,0-8.8,0c-0.9,3.5-1.4,6.8-2.6,9.8c-2.6,6.4-5.8,12.5-8.4,18.9
	c-0.5,1.2-0.4,3.1,0.2,4.3c3.8,7.3,9.1,12.1,18.2,9.8c0.4-0.1,1,0.1,1.5,0.2c0,2.1,0,4.1,0,6.5c-4.9,0-9.6,0.1-14.3-0.1
	c-1,0-2.2-1.1-2.9-2c-2.8-3.5-5.5-7-8.5-10.9c-8.7,10.8-19.9,15.7-33.3,14.2c-9.6-1-17.5-5.7-23-13.7c-6.4-9.2-7.4-19.2-3.6-29.6
	c3-8,7.3-11.7,22.7-20.5c-2.2-3-4.3-5.7-6.2-8.6c-4.3-6.5-5.5-13.7-3.8-21.3c2.4-10.8,12.5-17.8,24.6-17C52.6,4,60.3,11,61.8,21.5
	L54.3,21.6z M60.2,94.5c-9.6-13-19.3-26-28.9-39C17.3,60.2,8.8,70.5,8.9,82.1c0.1,11,8,21.4,18.8,24.7
	C39.3,110.3,52.7,105.3,60.2,94.5z"/>
<g id="XMLID_61_">
	
		<text id="XMLID_29_" transform="matrix(1 0 0 1 447.9264 93.1854)" class="st1" style="font-family:'AdventPro-SemiBold'; font-size:20px; letter-spacing:5;"> &lt;CODER&gt;</text>
</g>
<g id="XMLID_55_">
	
		<text id="XMLID_30_" transform="matrix(1 0 0 1 398.7207 66.2477)" class="st1" style="font-family:'AdventPro-SemiBold'; font-size:20px; letter-spacing:5;">GRAPHIC DESIGNER </text>
</g>
</svg>
